<svg width="155" height="40" viewBox="0 0 155 40" fill="none" xmlns="http://www.w3.org/2000/svg">
<rect x="0.5" y="0.5" width="154" height="39" fill="#F4F6FB"/>
<path d="M8.948 24V23.184H10.7V17.544H9.308V16.908C9.66 16.844 9.964 16.768 10.22 16.68C10.484 16.584 10.72 16.472 10.928 16.344H11.684V23.184H13.268V24H8.948ZM14.4448 24V23.412C15.2128 22.644 15.8648 21.972 16.4008 21.396C16.9368 20.812 17.3448 20.288 17.6248 19.824C17.9048 19.352 18.0448 18.912 18.0448 18.504C18.0448 18.064 17.9248 17.704 17.6848 17.424C17.4448 17.144 17.0808 17.004 16.5928 17.004C16.2728 17.004 15.9768 17.096 15.7048 17.28C15.4328 17.456 15.1848 17.672 14.9608 17.928L14.3968 17.364C14.7168 17.012 15.0568 16.732 15.4168 16.524C15.7848 16.308 16.2168 16.2 16.7128 16.2C17.4248 16.2 17.9848 16.408 18.3928 16.824C18.8008 17.232 19.0048 17.776 19.0048 18.456C19.0048 18.936 18.8688 19.424 18.5968 19.92C18.3328 20.408 17.9648 20.924 17.4928 21.468C17.0288 22.004 16.4928 22.588 15.8848 23.22C16.0928 23.204 16.3088 23.188 16.5328 23.172C16.7568 23.156 16.9688 23.148 17.1688 23.148H19.3888V24H14.4448ZM22.9177 24.144C22.1497 24.144 21.5457 23.8 21.1057 23.112C20.6737 22.416 20.4577 21.428 20.4577 20.148C20.4577 18.86 20.6737 17.88 21.1057 17.208C21.5457 16.536 22.1497 16.2 22.9177 16.2C23.6777 16.2 24.2737 16.536 24.7057 17.208C25.1457 17.88 25.3657 18.86 25.3657 20.148C25.3657 21.428 25.1457 22.416 24.7057 23.112C24.2737 23.8 23.6777 24.144 22.9177 24.144ZM22.9177 23.352C23.3657 23.352 23.7257 23.1 23.9977 22.596C24.2697 22.084 24.4057 21.268 24.4057 20.148C24.4057 19.028 24.2697 18.224 23.9977 17.736C23.7257 17.24 23.3657 16.992 22.9177 16.992C22.4697 16.992 22.1057 17.24 21.8257 17.736C21.5537 18.224 21.4177 19.028 21.4177 20.148C21.4177 21.268 21.5537 22.084 21.8257 22.596C22.1057 23.1 22.4697 23.352 22.9177 23.352ZM26.8785 24V18.168H27.6945L27.7785 19.008H27.8145C28.0705 18.728 28.3505 18.496 28.6545 18.312C28.9585 18.12 29.2825 18.024 29.6265 18.024C30.0745 18.024 30.4225 18.124 30.6705 18.324C30.9265 18.516 31.1145 18.788 31.2345 19.14C31.5385 18.812 31.8465 18.544 32.1585 18.336C32.4705 18.128 32.8025 18.024 33.1545 18.024C33.7545 18.024 34.1985 18.22 34.4865 18.612C34.7825 18.996 34.9305 19.56 34.9305 20.304V24H33.9465V20.436C33.9465 19.892 33.8585 19.496 33.6825 19.248C33.5065 19 33.2345 18.876 32.8665 18.876C32.4345 18.876 31.9465 19.176 31.4025 19.776V24H30.4185V20.436C30.4185 19.892 30.3305 19.496 30.1545 19.248C29.9785 19 29.7025 18.876 29.3265 18.876C28.8945 18.876 28.4065 19.176 27.8625 19.776V24H26.8785ZM36.8278 24V18.168H37.6438L37.7278 19.008H37.7638C38.0198 18.728 38.2998 18.496 38.6038 18.312C38.9078 18.12 39.2318 18.024 39.5758 18.024C40.0238 18.024 40.3718 18.124 40.6198 18.324C40.8758 18.516 41.0638 18.788 41.1838 19.14C41.4878 18.812 41.7958 18.544 42.1078 18.336C42.4198 18.128 42.7518 18.024 43.1038 18.024C43.7038 18.024 44.1478 18.22 44.4358 18.612C44.7318 18.996 44.8798 19.56 44.8798 20.304V24H43.8958V20.436C43.8958 19.892 43.8078 19.496 43.6318 19.248C43.4558 19 43.1838 18.876 42.8158 18.876C42.3838 18.876 41.8958 19.176 41.3518 19.776V24H40.3678V20.436C40.3678 19.892 40.2798 19.496 40.1038 19.248C39.9278 19 39.6518 18.876 39.2758 18.876C38.8438 18.876 38.3558 19.176 37.8118 19.776V24H36.8278ZM50.9073 24V16.968H48.5313V16.128H54.2913V16.968H51.9153V24H50.9073ZM56.078 24.144C55.59 24.144 55.182 24 54.854 23.712C54.534 23.416 54.374 23.008 54.374 22.488C54.374 21.848 54.658 21.36 55.226 21.024C55.802 20.68 56.71 20.44 57.95 20.304C57.95 20.056 57.914 19.82 57.842 19.596C57.778 19.372 57.658 19.192 57.482 19.056C57.314 18.912 57.07 18.84 56.75 18.84C56.414 18.84 56.098 18.904 55.802 19.032C55.506 19.16 55.242 19.304 55.01 19.464L54.626 18.78C54.898 18.604 55.23 18.436 55.622 18.276C56.022 18.108 56.454 18.024 56.918 18.024C57.63 18.024 58.146 18.244 58.466 18.684C58.786 19.116 58.946 19.696 58.946 20.424V24H58.13L58.046 23.304H58.01C57.738 23.528 57.438 23.724 57.11 23.892C56.79 24.06 56.446 24.144 56.078 24.144ZM56.366 23.352C56.646 23.352 56.91 23.284 57.158 23.148C57.406 23.012 57.67 22.82 57.95 22.572V20.952C56.982 21.072 56.302 21.252 55.91 21.492C55.526 21.732 55.334 22.04 55.334 22.416C55.334 22.744 55.434 22.984 55.634 23.136C55.834 23.28 56.078 23.352 56.366 23.352ZM60.7809 24V18.168H61.5969L61.6809 19.008H61.7169C61.9969 18.728 62.2929 18.496 62.6049 18.312C62.9169 18.12 63.2729 18.024 63.6729 18.024C64.2889 18.024 64.7369 18.22 65.0169 18.612C65.3049 18.996 65.4489 19.56 65.4489 20.304V24H64.4649V20.436C64.4649 19.892 64.3769 19.496 64.2009 19.248C64.0249 19 63.7449 18.876 63.3609 18.876C63.0649 18.876 62.7969 18.952 62.5569 19.104C62.3249 19.256 62.0609 19.48 61.7649 19.776V24H60.7809ZM67.3434 24V15.456H68.3154V21.24H68.3514L70.8354 18.168H71.9274L69.9714 20.508L72.1914 24H71.1114L69.4074 21.192L68.3154 22.464V24H67.3434ZM75.7831 24V16.128H78.2431C78.7791 16.128 79.2551 16.2 79.6711 16.344C80.0871 16.48 80.4111 16.712 80.6431 17.04C80.8831 17.36 81.0031 17.792 81.0031 18.336C81.0031 18.944 80.8431 19.436 80.5231 19.812C80.2031 20.18 79.7711 20.432 79.2271 20.568L81.2311 24H80.1031L78.2071 20.676H76.7791V24H75.7831ZM76.7791 19.86H78.0991C78.7151 19.86 79.1871 19.736 79.5151 19.488C79.8431 19.232 80.0071 18.848 80.0071 18.336C80.0071 17.816 79.8431 17.452 79.5151 17.244C79.1871 17.036 78.7151 16.932 78.0991 16.932H76.7791V19.86ZM84.67 24.144C84.198 24.144 83.754 24.024 83.338 23.784C82.93 23.544 82.598 23.196 82.342 22.74C82.094 22.284 81.97 21.736 81.97 21.096C81.97 20.44 82.094 19.884 82.342 19.428C82.598 18.972 82.93 18.624 83.338 18.384C83.754 18.144 84.198 18.024 84.67 18.024C85.15 18.024 85.594 18.144 86.002 18.384C86.41 18.624 86.738 18.972 86.986 19.428C87.242 19.884 87.37 20.44 87.37 21.096C87.37 21.736 87.242 22.284 86.986 22.74C86.738 23.196 86.41 23.544 86.002 23.784C85.594 24.024 85.15 24.144 84.67 24.144ZM84.67 23.328C85.174 23.328 85.578 23.124 85.882 22.716C86.194 22.3 86.35 21.76 86.35 21.096C86.35 20.424 86.194 19.88 85.882 19.464C85.578 19.048 85.174 18.84 84.67 18.84C84.174 18.84 83.77 19.048 83.458 19.464C83.146 19.88 82.99 20.424 82.99 21.096C82.99 21.76 83.146 22.3 83.458 22.716C83.77 23.124 84.174 23.328 84.67 23.328ZM90.6099 24.144C89.9939 24.144 89.5419 23.952 89.2539 23.568C88.9659 23.176 88.8219 22.608 88.8219 21.864V18.168H89.8179V21.732C89.8179 22.276 89.9019 22.672 90.0699 22.92C90.2459 23.168 90.5259 23.292 90.9099 23.292C91.2139 23.292 91.4819 23.216 91.7139 23.064C91.9539 22.904 92.2099 22.652 92.4819 22.308V18.168H93.4659V24H92.6499L92.5659 23.088H92.5299C92.2579 23.408 91.9699 23.664 91.6659 23.856C91.3619 24.048 91.0099 24.144 90.6099 24.144ZM95.4332 24V18.168H96.2492L96.3332 19.008H96.3692C96.6492 18.728 96.9452 18.496 97.2572 18.312C97.5692 18.12 97.9252 18.024 98.3252 18.024C98.9412 18.024 99.3892 18.22 99.6692 18.612C99.9572 18.996 100.101 19.56 100.101 20.304V24H99.1172V20.436C99.1172 19.892 99.0292 19.496 98.8532 19.248C98.6772 19 98.3972 18.876 98.0132 18.876C97.7172 18.876 97.4492 18.952 97.2092 19.104C96.9772 19.256 96.7132 19.48 96.4172 19.776V24H95.4332ZM103.988 24.144C103.26 24.144 102.676 23.88 102.236 23.352C101.796 22.816 101.576 22.064 101.576 21.096C101.576 20.464 101.692 19.92 101.924 19.464C102.164 19 102.476 18.644 102.86 18.396C103.252 18.148 103.668 18.024 104.108 18.024C104.444 18.024 104.736 18.084 104.984 18.204C105.232 18.324 105.484 18.488 105.74 18.696L105.692 17.7V15.456H106.688V24H105.872L105.788 23.316H105.752C105.528 23.54 105.264 23.736 104.96 23.904C104.656 24.064 104.332 24.144 103.988 24.144ZM104.204 23.316C104.716 23.316 105.212 23.048 105.692 22.512V19.464C105.444 19.24 105.204 19.084 104.972 18.996C104.748 18.9 104.516 18.852 104.276 18.852C103.964 18.852 103.68 18.948 103.424 19.14C103.176 19.324 102.976 19.584 102.824 19.92C102.672 20.248 102.596 20.636 102.596 21.084C102.596 21.78 102.736 22.328 103.016 22.728C103.296 23.12 103.692 23.316 104.204 23.316ZM110.176 24.144C109.76 24.144 109.364 24.068 108.988 23.916C108.612 23.756 108.284 23.564 108.004 23.34L108.496 22.68C108.752 22.88 109.016 23.048 109.288 23.184C109.56 23.312 109.868 23.376 110.212 23.376C110.596 23.376 110.884 23.288 111.076 23.112C111.268 22.928 111.364 22.712 111.364 22.464C111.364 22.264 111.296 22.096 111.16 21.96C111.032 21.824 110.864 21.712 110.656 21.624C110.456 21.528 110.248 21.44 110.032 21.36C109.76 21.256 109.492 21.14 109.228 21.012C108.964 20.876 108.748 20.704 108.58 20.496C108.412 20.28 108.328 20.008 108.328 19.68C108.328 19.208 108.504 18.816 108.856 18.504C109.216 18.184 109.712 18.024 110.344 18.024C110.704 18.024 111.04 18.088 111.352 18.216C111.664 18.344 111.932 18.5 112.156 18.684L111.676 19.308C111.476 19.156 111.268 19.032 111.052 18.936C110.836 18.84 110.6 18.792 110.344 18.792C109.976 18.792 109.704 18.876 109.528 19.044C109.36 19.212 109.276 19.408 109.276 19.632C109.276 19.816 109.336 19.968 109.456 20.088C109.576 20.2 109.732 20.3 109.924 20.388C110.116 20.468 110.32 20.552 110.536 20.64C110.816 20.744 111.092 20.864 111.364 21C111.636 21.128 111.86 21.304 112.036 21.528C112.22 21.744 112.312 22.036 112.312 22.404C112.312 22.716 112.228 23.004 112.06 23.268C111.9 23.532 111.66 23.744 111.34 23.904C111.028 24.064 110.64 24.144 110.176 24.144Z" fill="#1A2834"/>
<g clip-path="url(#clip0_364_59959)">
<path d="M130 18L135 23L140 18H130Z" fill="#336498"/>
</g>
<rect x="0.5" y="0.5" width="154" height="39" stroke="#E0E3E6"/>
<defs>
<clipPath id="clip0_364_59959">
<rect width="24" height="24" fill="white" transform="translate(123 8)"/>
</clipPath>
</defs>
</svg>
